<?xml version="1.0" encoding="UTF-8" standalone="no"?>
<svg width="68px" height="68px" viewBox="0 0 68 68" version="1.1" xmlns="http://www.w3.org/2000/svg" xmlns:xlink="http://www.w3.org/1999/xlink" xmlns:sketch="http://www.bohemiancoding.com/sketch/ns">
    <!-- Generator: Sketch 3.4 (15575) - http://www.bohemiancoding.com/sketch -->
    <title>Login Icon</title>
    <desc>Created with Sketch.</desc>
    <defs></defs>
    <g id="Page-1" stroke="none" stroke-width="1" fill="none" fill-rule="evenodd" sketch:type="MSPage">
        <g id="Login-Icon" sketch:type="MSLayerGroup" fill="#685643">
            <path d="M34,68 C52.7776815,68 68,52.7776815 68,34 C68,15.2223185 52.7776815,0 34,0 C15.2223185,0 0,15.2223185 0,34 C0,52.7776815 15.2223185,68 34,68 Z M12.1833931,36.8758562 C12.1833931,37.982235 13.0742832,38.8791322 14.1886226,38.8791322 L29.6638399,38.8791315 L29.6393498,42.9340831 C29.6326817,44.0381566 30.3384003,44.3896392 31.2198415,43.7159121 L43.3931212,34.4113002 L31.2521755,25.1183632 C30.3749622,24.4469255 29.6638402,24.7906252 29.6638401,25.9058055 L29.6638399,30.2890603 C29.6638399,30.2890603 24.2763318,30.2701244 21.5431327,30.2790037 C20.6179074,30.2820095 14.1896803,30.2796151 14.1896803,30.2796151 C13.0816385,30.2792775 12.1833931,31.1668376 12.1833931,32.2800105 L12.1833931,36.8758562 Z M24.7117255,27.4440898 L24.7117255,21.0342602 L47.3807001,21.0342602 L47.3807001,47.9350395 L24.7117255,47.9350395 L24.7117255,41.4443168 L19.2711716,41.4443171 L19.2711716,49.9298998 C19.2711716,51.5887725 20.6070782,52.9335546 22.2780435,52.9335546 L49.8143821,52.9335546 C51.4750316,52.9335546 52.821254,51.5972503 52.821254,49.9424118 L52.821254,18.9911428 C52.821254,17.3391802 51.4853474,16 49.8143821,16 L22.2780435,16 C20.617394,16 19.2711716,17.3351799 19.2711716,19.0067999 L19.2711716,27.4440899 L24.7117255,27.4440898 Z" id="Oval-1" sketch:type="MSShapeGroup"></path>
        </g>
    </g>
</svg>